<svg xmlns="http://www.w3.org/2000/svg" xmlns:xlink="http://www.w3.org/1999/xlink" version="1.1" id="Layer_1" x="0px" y="0px" width="100px" height="100px" viewBox="0 0 100 100" enable-background="new 0 0 100 100" xml:space="preserve">
<path fill-rule="evenodd" clip-rule="evenodd" d="M90.976,91.259l-2.772-4.26l-0.207-0.29l-0.413-0.662l-0.455-0.702l-0.287-0.539  l-0.375-0.7l-0.37-0.458l-0.29-0.207L85.68,83.4l-0.123-0.289l-0.29-0.705l-0.496-0.743l-0.578-0.496l-0.207-0.126l-0.04-0.204  v-0.166v-0.083l-0.995-2.15L81.626,76.7l-1.115-1.118l-0.496-0.412l-0.869-1.861l-1.034-1.284l-0.869-0.785l-0.372-0.207  l-0.786-2.024l-0.825-1.324l-0.622-0.705l-0.207-0.206l-0.372-1.365l-0.66-1.238l-0.828-1.161l-0.909-0.909l-0.911-0.744  l-0.745-0.577l-0.496-0.333l-0.207-0.124l-0.163-0.33l-0.333-0.827l-0.496-1.075l-0.538-1.035l-0.826-0.908l-1.159-0.912  L64.71,54.57l-0.413-0.248l-0.042-0.784l-0.207-0.869l-0.33-0.746l-0.372-0.785l-0.372-0.619l-0.331-0.497l-0.249-0.331  l-0.123-0.124l-0.91-0.745l-0.951-0.455l-0.951-0.291l-0.953-0.041l-0.949,0.124l-0.91,0.248l-0.089,0.038l-0.146,0.04l-0.868,0.373  l-0.827,0.412l-0.786,0.455l-0.703,0.539l-0.494,0.37c-0.551-0.919-1.21-1.845-1.565-2.535l-0.909-1.737l-0.91-1.985l-0.951-2.193  l-0.993-2.315l-0.952-2.523l-0.909-2.648l-0.87-2.852l-0.744-2.896l-0.245-1.05l0.369-0.151l0.62-0.371l0.165-0.332l-0.165-0.249  l-0.373-0.207l-0.37-0.123l-0.333-0.084l-0.122-0.04l-0.084-0.25v-0.496l0.146-0.435l0.324-0.025l0.371,0.04l0.455-0.04l0.228-0.077  l0.006,0l0.373-0.125l0.374-0.206l0.371-0.208l0.538-0.536l0.208-0.29l0.204-0.622l0.084-0.662l0.037-0.49l0.473,0.237l0.621,0.043  l0.066-0.088l0.167,0.011l0.496-0.663l-0.165-0.993L47.9,19.767l-0.875-0.398l0.146-0.021l0.156-0.067l0.076-0.011l0.289-0.124  l0.249-0.165l0.207-0.291l0.166-0.332l0.124-0.455v-0.414l-0.207-0.371l-0.331-0.25l-0.455-0.206l-0.455-0.04l-0.413-0.084  L46.287,16.5h-0.083l1.531-0.536l0.372-0.457v-0.414L47.9,14.721l-0.414-0.412l-0.455-0.291l-0.455-0.208l-0.193-0.096l0.745,0.05  l0.137-0.083l0.098,0.006l1.488-0.91v-0.496l-0.208-0.373l-0.456-0.289l-0.537-0.206l-0.579-0.084l-0.496-0.083h-0.332H46.08  l0.373-0.29l0.289-0.373l0.292-0.372l0.206-0.373l0.247-0.331l0.125-0.29l0.124-0.206V8.93l0.042-0.537l-0.207-0.29l-0.29-0.041  l-0.414,0.082L46.368,8.31l-0.003,0.002l-0.229,0.076l-0.37,0.208l-0.208,0.147L45.17,8.434l-0.288-0.041l-0.159,0.088L44.647,8.47  l-0.373,0.207l-0.29,0.29L43.738,9.38l-0.166,0.332l-0.043,0.1L43.35,9.427h-0.414l-0.078,0.078h-0.155L42.22,9.988l-0.069-0.024  l-0.083-0.083l-0.125-0.207l-0.042-0.373l-0.041-0.539l0.123-0.785V7.317l-0.123-0.289l-0.29-0.042l-0.158,0.088l-0.076-0.011  l-0.373,0.207l-0.373,0.29l-0.428,0.429V7.896l0.001-0.58l-0.042-1.116l-0.165-0.579l-0.372-0.207l-0.579,0.082l-0.434,0.145  l-0.422,0.14l-0.62,0.29l-0.578,0.33l-0.292,0.228l0.028-0.138l-0.042-0.373l-0.372-0.456l-0.951-0.29l-0.621,0.125l-0.037,0.038  l-0.197,0.04L34.018,6.03l-0.332,0.746L33.48,7.643L33.314,8.47l-0.083,0.744v0.077l-0.056-0.112l-0.539-0.454l-0.869-0.126  l-0.186,0.085l-0.047-0.007l-0.455,0.208l-0.207,0.453l-0.083,0.58l0.041,0.62l0.125,0.704l0.125,0.539l0.086,0.312l-0.722-0.433  h-0.33l-0.181,0.077h-0.053l-0.29,0.124l-0.208,0.207l-0.165,0.333l-0.081,0.329l-0.084,0.248l-0.04,0.208v0.084l0.45,1.353  l-0.218-0.025l-0.499,0.082l-0.181,0.07l-0.052,0.009l-0.537,0.206l-0.496,0.248l-0.456,0.208l-0.163,0.116l0.064-0.194l0.084-0.497  l-0.207-0.62l-0.704-0.538l-0.538-0.042l-0.208,0.08l-0.025-0.002l-0.538,0.206l-0.536,0.457l-0.498,0.578l-0.414,0.579  l-0.331,0.497l-0.185,0.332l-0.285-0.285l-0.455-0.043l-0.232,0.077h-0.001l-0.128,0.043l-0.011,0.003l0,0l-0.234,0.079  l-0.165,0.082l-0.661,0.744l-0.288,0.622l-0.043,0.62l0.125,0.455l0.247,0.415l0.249,0.331l0.247,0.165l0.083,0.084l-0.412,0.908  l0.288,0.869l0.538,0.619l0.192,0.194l-0.249,0.019l-0.105,0.067l-0.128,0.01l-0.454,0.289l-0.366,0.367l-1.221-1.602l-0.083-0.083  l-0.208-0.125l-0.33-0.164l-0.455-0.209l-0.416-0.081l-0.453-0.042l-0.456,0.122l-0.021,0.02l-0.212,0.058l-0.331,0.331  l-0.208,0.786l0.331,0.663l0.538,0.455l0.249,0.165l-0.895,1.565l-1.23-0.856l-0.248-0.25l-0.288-0.041l-0.29,0.041l-0.075,0.055  l-0.157,0.023l-0.29,0.208l-0.291,0.207l-0.249,0.166l-0.578,0.577l-0.248,0.416l-0.125,0.454l-0.083,0.415l-0.041,0.454  l0.033,0.301l-0.047-0.047l-0.373-0.124l-0.333-0.001l-0.229,0.077h-0.003l-0.372,0.126l-0.333,0.165l-0.247,0.166l-0.206,0.206  L9.49,28.407l-0.208,0.702l0.125,0.538l0.332,0.498l0.412,0.413l0.407,0.258l0.131-0.053l0.083-0.016l-0.197,0.08l-0.016-0.011  l-0.282,0.114l-0.496,0.332l-0.704,0.538l-0.579,0.663l-0.082,0.661l0.207,0.62l0.413,0.496l0.539,0.455l0.496,0.331l0.373,0.206  l0.113,0.057l-0.417,0.074l-0.13,0.059l-0.104,0.019l-0.455,0.206l-0.247,0.332l-0.125,0.29l-0.042,0.289l0.083,0.249l0.042,0.207  L9.2,37.051L9.16,37.59l0.165,0.248l0.33,0.083l0.414-0.083l0.121-0.055l0.111-0.022l0.456-0.208l0.415-0.165l0.175-0.126  l-0.079,1.115l0.33,0.744l0.456,0.455l0.207,0.124l-1.697,0.703l-0.411,0.414l-0.167,0.414l0.042,0.373l0.208,0.288l0.289,0.291  l0.249,0.165l0.208,0.125l0.123,0.042l-1.489,0.827l-0.62,1.448L8.868,45.82l0.208,0.704l0.414,0.413l0.538,0.206l0.496,0.084h0.415  h0.164l-0.413,0.992l-0.001,0.662l0.208,0.455l0.414,0.249l0.496,0.083l0.455,0.042l0.373-0.042l0.124-0.041l0.042,0.62l0.084,0.331  l0.206,0.124l0.207-0.041l0.136-0.059l0.098-0.02l0.291-0.123l0.29-0.208l0.33-0.249l0.371-0.289l0.333-0.249l0.291-0.373  l0.247-0.33l0.208-0.373l0.122-0.289l0.125-0.29l0.082-0.165l0.002-0.058l1.047-0.237l-0.66,0.745l-0.415,0.661l-0.122,0.538  l-0.002,0.497l0.167,0.413l0.164,0.248l0.249,0.249l0.29,0.125l0.414-0.084l0.092-0.049l0.141-0.028l0.538-0.289l0.58-0.414  l0.538-0.455l0.494-0.414l0.214-0.214l0.381,1.449l0.58,0.248l0.199-0.091l0.034,0.014l0.454-0.208l0.332-0.33l0.125-0.207  l1.579-2.607l0.131,0.08l0.413,0.165l0.414-0.083l0.019-0.034l0.215-0.042l0.29-0.54l0.083-0.578l0.028-0.196l0.398,0.026  l0.498-0.165l0.001,0l0.232-0.077l0.248-0.248l0.165-0.333l0.083-0.33l0.042-0.289l-0.042-0.207v-0.083l-0.878-0.642l0.396,0.057  l2.234,0.579l2.315,0.745l2.441,0.952l2.481,1.075l2.44,1.116l2.441,1.2l2.275,1.2l2.15,1.157l1.944,1.118  c0,0,1.594,0.892,1.692,0.949c0.166,0.092,0.347,0.192,0.535,0.292l-0.1,0.1l-0.786,1.036l-0.786,1.28L47.063,58l-0.124,1.694  l0.455,1.945l1.24,1.901l0.373,0.372L50,64.74l0.544,0.313c-0.07,0.27-0.003,0.558,0.202,0.762l0.04,0.041  c0.158,0.159,0.372,0.239,0.587,0.232l1.396,0.349c0.176,0.045,0.357,0.023,0.521-0.051l0.515,0.837l0.91,1.155l0.95,0.788  l1.034,0.536l0.616,0.272c-0.022,0.252,0.06,0.505,0.254,0.675l0.62,0.539c0.238,0.206,0.578,0.254,0.863,0.118l0.219-0.103  l0.407,0.568l0.619,0.702l0.745,0.662l0.91,0.66l0.97,0.427c0.013,0.262,0.151,0.507,0.384,0.646l0.622,0.37  c0.174,0.104,0.383,0.141,0.581,0.096l0.316-0.07l0.229,0.229l0.661,0.58l0.829,0.578l0.991,0.58l1.159,0.412l0.028,0.005  c-0.044,0.363,0.16,0.711,0.505,0.841l0.662,0.246c0.162,0.062,0.338,0.066,0.504,0.02l0.212-0.063l0.198,0.234l0.539,0.622  l0.619,0.619l0.745,0.498l0.201,0.066c0.053,0.303,0.271,0.56,0.582,0.637l0.662,0.166c0.1,0.026,0.204,0.03,0.307,0.017  l0.039-0.006l0.193,0.359l0.413,0.579l0.579,0.579l0.705,0.539l0.826,0.415l0.951,0.204l0.207,0.126l0.538,0.37l0.703,0.539  l0.745,0.496l0.493,0.246l0.539,0.292l0.373,0.207l0.166,0.08l0.206,0.29l0.662,0.664l0.992,0.662l1.241,0.33l0.413,0.081  l0.37,0.126l0.25,0.083l0.125,0.04l4.384,2.646l0.136-0.136l0.097,0.06L90.976,91.259z M26.076,40.444l0.011-0.018l0.223-0.061  l0.289-0.455l0.208-0.537l0.082-0.248l0.041-0.122l0.387,0.117l2.399,0.992l3.061,1.49l3.681,2.109l4.261,2.854l3.801,2.95  l-1.623-0.918L40.25,47.19l-2.481-1.158l-2.235-0.994l-2.068-0.744l-1.861-0.703l-1.697-0.456l-1.447-0.373l-1.324-0.247  l-0.744-0.138l0.248-0.358l0.042-0.538l-0.291-0.538l-0.331-0.331L25.87,40.5L26.076,40.444z M29.426,36.183l0.373,0.455l0.122,0.29  l0.29,0.29l0.704,0.536l0.662,0.333l0.094-0.148l0.141,0.071l0.289-0.455l0.118-0.468l0.352,0.421l1.323,1.571l1.449,1.532  l0.819,0.821l-0.588-0.402l-1.697-1.034l-1.694-0.951l-1.613-0.87l-1.614-0.62l-1.039-0.346l0.749-0.605l0.434-0.567L29.426,36.183z   M39.627,31.514l0.745-0.33l0.456-0.455l0.04-0.455l-0.066-0.154l0.289,0.108l0.496-0.084l0.089-0.053l0.145-0.024l0.413-0.247  l0.273-0.35l0.239,1.006l0.495,1.986l0.58,2.065l0.703,2.275l0.829,2.318l0.91,2.481l1.115,2.523l1.2,2.522l1.324,2.564l0.752,1.297  l-0.851-1.045l-2.316-2.895l-2.522-3.349l-2.481-3.723l-2.399-3.889l-1.78-3.482l0.001-0.032l0.041-0.29v-0.13l0.388,0.001  l0.661-0.084l0.15-0.066L39.627,31.514z M36.69,38.835l-1.857-2.158l0.246-0.118l0.309-0.249l1.938,2.064l3.888,3.144l6.598,8.055  l-3.759-3.377l-4.054-3.888L36.69,38.835z M36.856,34.948l0.373-0.373l0.165-0.25l0.2-0.278l0.684,1.389l1.488,2.318l0.921,1.092  l-0.109-0.094l-2.895-2.647l-1.045-1.096l0.088-0.088L36.856,34.948z M10.896,30.723l0.176,0.176l-0.233-0.129l-0.042-0.027  L10.896,30.723z"/>
</svg>