<svg xmlns:dc="http://purl.org/dc/elements/1.1/" xmlns:cc="http://creativecommons.org/ns#" xmlns:rdf="http://www.w3.org/1999/02/22-rdf-syntax-ns#" xmlns:svg="http://www.w3.org/2000/svg" xmlns="http://www.w3.org/2000/svg" xmlns:xlink="http://www.w3.org/1999/xlink" xmlns:sodipodi="http://sodipodi.sourceforge.net/DTD/sodipodi-0.dtd" xmlns:inkscape="http://www.inkscape.org/namespaces/inkscape" width="100" height="100" viewBox="0 0 80 80" version="1.1" id="svg2" inkscape:version="0.48.2 r9819" sodipodi:docname="blank.svg.2013_01_01_11_07_41.0.svg">
  <metadata id="metadata10">
    <rdf:RDF>
      <cc:Work rdf:about="">
        <dc:format>image/svg+xml</dc:format>
        <dc:type rdf:resource="http://purl.org/dc/dcmitype/StillImage"/>
        <dc:title/>
      </cc:Work>
    </rdf:RDF>
  </metadata>
  <defs id="defs8"/>
  <sodipodi:namedview pagecolor="#ffffff" bordercolor="#666666" borderopacity="1" objecttolerance="10" gridtolerance="10" guidetolerance="10" inkscape:pageopacity="0" inkscape:pageshadow="2" inkscape:window-width="1600" inkscape:window-height="853" id="namedview6" showgrid="false" inkscape:zoom="3.3787226" inkscape:cx="51.071076" inkscape:cy="52.347569" inkscape:window-x="-4" inkscape:window-y="-4" inkscape:window-maximized="1" inkscape:current-layer="layer1"/>
  <g inkscape:groupmode="layer" id="layer2" inkscape:label="Layer" style="display:none">
    <path style="fill:none;stroke:#000000;stroke-width:1px;stroke-linecap:butt;stroke-linejoin:miter;stroke-opacity:1" d="m 17.301549,39.547156 2.119953,-0.889012 0.205157,1.778025 1.84641,-1.025784" id="path4703" inkscape:connector-curvature="0" transform="scale(0.8,0.8)"/>
  </g>
  <g inkscape:groupmode="layer" id="layer1" inkscape:label="draw">
    <g id="g3050" transform="matrix(0.08800491,0,0,0.08800491,-16.261526,-5.1256182)">
      <path id="path3022" d="m 618.5,68.6 c 78.1,-4.7 156.8,13.1 226.5,48.4 58.5,30.6 110.7,73.7 150.7,126.3 47.8,62.5 78.7,137.9 87.7,216.2 3.5,31 4.8,62.4 1.8,93.6 -5.6,63.3 -25.2,125.2 -56.6,180.5 C 992.9,795.7 942.5,849.5 882,888 825.2,924.6 759.8,948.3 692.5,955.4 611.2,965.5 527.3,951.6 453.2,916.8 376,880.7 309.2,822.3 264.3,749.7 201.4,651 180.8,526.5 207.6,412.6 223.4,344 256,279.3 301.6,225.6 346,173.1 402.7,131 466,104 514.2,83.1 566.1,71.4 618.5,68.6 m -22.1,25.9 c -10.5,1.3 -21.2,0.7 -31.7,1.3 -6.5,0.6 -12.5,3.4 -18.8,5 -7.5,2 -15.3,2.7 -22.9,4.3 -4.9,0.9 -8.1,5.8 -13.2,6.2 -5.3,-0.7 -8.6,3.5 -13,5.3 -7.2,1.4 -14.6,2.2 -21.3,5.5 1.4,3 2.8,6.1 4.9,8.6 -2,-1.4 -4,-3.6 -6.7,-3.3 -7.1,0.2 -14.5,0.8 -20.7,4.6 -5,2.5 -8.2,7.9 -13.8,9.1 -8.1,1.3 -14.1,7.4 -21,11.1 -7.2,4.2 -13.5,9.7 -20.3,14.4 -4.2,1.5 -9,2.4 -11.9,6.4 -3.4,2.4 -4,7.2 -7.5,9.4 -8.4,4.1 -16.5,9.5 -21.8,17.4 -2.5,3.3 -7.3,3.7 -9.8,7 -5.6,9.5 -16.7,14.1 -22.3,23.8 -2.8,5.2 -5.7,10.6 -10.3,14.5 -11.3,6.8 -17.2,19.4 -24.1,30.1 -6.1,5.5 -10.1,12.8 -12.1,20.7 -2.9,5 -7.7,8.8 -10,14.2 -3.2,7.6 -9.2,14.1 -10.3,22.5 -0.7,3.8 -2.7,7.1 -4.8,10.4 -3.2,5.1 -3.2,11.6 -6.6,16.6 -7.4,8.7 -3.9,21.3 -7.6,31.3 -6.6,5.4 -8,14.2 -10.2,22 -1.7,3.9 -0.5,8 -0.8,12.1 -3.4,10.8 -6.4,21.9 -6.5,33.3 -0.8,16 -4.4,31.9 -2.8,47.9 0.3,6.1 -0.5,12.2 0.4,18.2 0.5,2.7 2.8,5.2 1.8,8 -1.5,5.8 -3,11.9 -0.9,17.8 1.6,4.2 1.4,8.7 1,13.1 -0.7,6.2 2.8,11.6 2.8,17.7 0.4,15.3 4,30.3 8.4,45 1.2,5.8 5.9,10.1 7,15.9 0.6,7.3 4.8,13.3 7.1,20 2.5,5.9 3.1,12.6 7.1,17.8 3.4,4.2 1.7,9.8 3.5,14.5 1.4,4.2 5.9,6.2 8.6,9.4 1.1,5.2 0.8,11.2 4.6,15.5 2,3.9 5.8,6.2 8.5,9.6 2.8,3.2 1.1,8.4 4.5,11.4 4,4.6 11.2,7.9 11.1,14.9 3.3,1.4 4.5,4.5 4.8,7.8 0.5,5.2 7.2,5.7 9.1,10.1 1.8,3.8 3.1,8 6.1,11.1 2.1,2.5 5.8,2.6 8.2,4.8 3.2,3.6 3,9.1 6.5,12.4 3.2,2.9 6.5,5.8 10.4,7.6 2.6,1.4 5.7,2.1 7.4,4.7 2.3,2.6 1.3,6.4 2.9,9.2 3.9,3.8 9.5,5.6 13,9.9 4.5,5.6 12.2,6.6 18.2,9.9 1.1,2.6 0.3,5.8 1.8,8.2 3.4,2.2 7.6,2.1 11.2,3.7 3.5,1.2 5.6,4.4 8.3,6.7 2.4,1.7 5.6,2.1 8.1,3.8 1.4,1.8 1.8,4.2 3.2,6 3,1.1 6.4,0.5 9.5,1.5 2.4,1.5 2.3,4.9 4.1,6.9 3.2,1.7 6.9,1.9 10.1,3.7 2.1,1.9 3.7,4.4 5.9,6.3 3,2.1 6.8,1.9 10.1,3.1 4.4,1.9 7.7,5.9 12.5,7.1 9.9,2.4 20.6,4.7 28.7,11.3 4.7,3.6 10.8,4.3 16.3,6 3.4,0.8 6.8,-0.6 10.3,-0.2 3.4,1.1 5.5,4.3 8.6,6 8.4,3.2 18.1,0.5 26.1,5 3.1,1.9 6.6,-0.8 9.9,0.2 2.9,0.2 6,3.4 9,1.5 3.7,-2.4 7.3,1.2 11.1,2 8.8,3.9 19.1,-1.2 27.6,3.7 3.9,2.4 8.5,1.1 12.7,0.6 3.7,-2.7 6.9,-6.2 11,-8.4 -0.9,2 -1.8,4 -2.7,6 13.2,0.9 26.5,-1 39.5,1.8 4.9,1.9 8.7,-1.9 13,-3.3 8.8,-1.7 18.8,-4.3 27.3,0.4 0.4,-1.8 0.7,-3.7 1.4,-5.5 2.3,-0.6 4.8,-0.9 7.1,-1.7 0.5,1.4 0.9,2.8 1.4,4.2 4.6,-2 8.9,-4.6 13.3,-7.1 3.9,-2.5 9.4,2.5 12.5,-1.6 2.7,-3.3 7.4,-3.1 11.1,-4.8 5.9,-2.6 12.6,-1.5 18.9,-0.8 1.4,-2.4 2.3,-6.1 5.6,-6.7 2.7,0.3 5.1,1.7 7.6,2.9 2.4,-7.1 10.2,-13.1 17.8,-10.3 4,1.1 8.2,-0.6 11.6,-2.7 3.2,-1.8 1.5,-6.6 4.2,-8.7 2.6,-0.9 5.3,-0.7 7.9,-0.3 1.6,-1.8 3.1,-3.8 5.5,-4.6 3.3,-1 6.9,0.5 10.2,-0.5 2.3,-0.9 4.3,-2.3 6.4,-3.4 0.8,-3.9 1.1,-8.1 4.8,-10.4 2.7,1.3 5.5,2.8 8.6,2.7 5.3,-4.6 8.8,-12.9 17.5,-11.7 -1,-1.4 -1.8,-2.9 -2.6,-4.4 2.7,-1.6 5.7,-2.7 8.6,-3.8 1.5,-1.8 2.2,-4.2 3.9,-6 2.5,-1.2 5.4,0.6 8,1 0.3,-1.1 0.6,-2.3 1,-3.4 l -5.3,-1.2 c 1.5,-2 3,-4 4.7,-5.8 4.8,-2.3 11.2,0.4 15.2,-3.7 1.4,-2.9 0.6,-6.4 2,-9.2 4.1,-5.1 10.1,-8.1 15.7,-11.3 2.9,-2.9 2.3,-7.5 4.1,-10.9 2.4,-2.6 5.9,-3.6 9,-5.1 4.7,-2.3 8,-6.6 11.4,-10.4 2.2,-2.1 1.7,-5.3 2.2,-8 3.4,-1 6.9,-1.6 10.3,-2.6 3.6,-2.8 6.5,-7 6.9,-11.7 0.5,-4.6 1.8,-10.8 7.1,-11.8 6.3,-0.8 9.9,-8.2 8.4,-13.9 -1.1,-5.3 3.3,-9.3 5.6,-13.6 2.5,-0.6 5.1,-0.8 7.6,-1.4 2.9,-5.6 3.6,-11.9 4.4,-18.1 0.6,-7.8 7.9,-12.8 9,-20.5 5.6,-3.8 5,-10.7 6.6,-16.5 1,-3.8 7.2,-1.1 7.9,-4.8 0.6,-2.3 -2.4,-2.9 -3.5,-4.3 0.4,-2.1 0,-4.2 0.9,-6.1 1.9,-1.3 4.2,-1.5 6.4,-2 3.9,-11.6 7.7,-23.2 10.8,-35 1.8,-4.2 0.6,-8.6 0,-12.8 -1.4,-7.3 0,-14.7 1.7,-21.7 6,-7.4 4,-17.4 3.4,-26.1 -0.6,-3.9 5.3,-3.3 5.4,-7.1 1.5,-9.5 -2.8,-18.9 -3.6,-28.3 -1.4,-1.1 -2.9,-2.2 -4.2,-3.4 3.2,-1.5 6.4,-2.9 9.8,-4 -0.5,-2.4 -0.8,-5.1 -0.8,-7.6 -1.7,0 -3.4,0 -5.1,0 -0.1,-1.5 -0.3,-4.6 -0.4,-6.1 1.9,0.4 3.8,0.9 5.7,1.3 -2.7,-5 -5.5,-10.1 -6.4,-15.8 1.9,-1.7 3.9,-3.1 5.8,-4.7 -1.2,-8.2 -2.8,-16.4 -3,-24.7 0.2,-6.4 -6.8,-9.8 -7.4,-16.2 -1.3,-2.9 2.1,-4.5 3.2,-6.8 0,-1.7 -0.4,-3.3 -0.6,-5 -2.1,0 -4.3,-0.1 -6.4,0 0.8,-5.3 1.8,-10.6 2.8,-15.8 -0.2,-7.5 -4,-14.6 -9.3,-19.9 -3.2,-3.3 -2.3,-8 -2.3,-12.2 -2.3,-8.5 -9.5,-16.3 -7.8,-25.6 1.1,-4.1 -3.4,-6.6 -5.3,-9.8 -4.6,-4.6 -2.7,-12.2 -6.9,-17 -6.6,-6.9 -9,-16.6 -15.5,-23.6 3.8,-8.6 -5.1,-15.1 -8.6,-22.1 -2.5,-5.9 -8.1,-9.4 -12.2,-13.9 -1.5,-9.3 -9.6,-15 -15.8,-21.3 -3.4,-5.8 -5.9,-12.4 -11.3,-16.8 -1.5,-1.5 -3.8,-0.8 -5.6,-0.7 -2.2,-3 -2,-6.9 -3.5,-10.2 -2.7,-2.3 -6.9,-1.6 -9.9,-3.2 -2.8,-2.6 -4.1,-6.4 -7.3,-8.5 -4.1,-3.6 -10.1,-5.5 -12.5,-10.7 -2.5,-4.2 -5.3,-8.1 -7.8,-12.3 -2.5,2.1 -5.7,2.4 -8.8,2.8 -1.3,-3.1 -0.5,-6.5 -1.3,-9.6 -3.3,-2.2 -8.2,-1.6 -10.5,-5.3 -6.2,-8.4 -16.5,-11.3 -25.5,-15.7 -5.1,-1.8 -4.6,-9.6 -10.4,-10.3 -5.9,-0.9 -11.7,-2.1 -17.3,-3.9 1,-1.8 2,-3.5 3.1,-5.3 -4.4,-1.1 -8.8,-2 -13.3,-2.7 -3.1,-1.7 -4.5,-5.6 -7.9,-7 -3.5,-0.8 -7.3,1.4 -10.7,-0.2 -5.4,-2.3 -10.1,-6.4 -16.2,-6.8 -6,-1.9 -16.6,-1.2 -17,-9.7 -3.5,-0.8 -6.9,-2.1 -10.4,-2.7 -5.2,-0.6 -10.6,0.5 -15.6,-1.5 -5.1,-1 -8.5,-5.3 -13.4,-6.6 -6.2,-2.6 -12.9,-1.5 -19.4,-2 -9.5,-1.8 -19.3,-1.5 -28.4,-4.7 -8.4,-2.7 -17.4,-1.9 -26.1,-2.7 -12.9,0.2 -25.7,-1.4 -38.6,-0.6 -9.6,-1 -18.8,2 -27.7,5 z" inkscape:connector-curvature="0" style="fill:#000000;stroke:#000000;stroke-width:0.09375"/>
      <path id="path3024" d="m 500.7,117.4 c 1.7,-0.8 2.5,2.9 0.6,2.8 -1.2,-0.3 -1.6,-2.1 -0.6,-2.8 z" inkscape:connector-curvature="0" style="fill:#000000;stroke:#000000;stroke-width:0.09375"/>
      <path id="path3026" d="m 658.5,142.6 c 24.4,-0.4 49,1.7 72.8,7 32.5,6.6 63.2,22 87.5,44.6 7.4,7.2 14.5,15.8 15.6,26.4 1.8,9.2 -2.9,17.8 -7.5,25.3 -15.6,25 -33.2,48.6 -50.9,72.1 -27.8,38.4 -53.5,78.2 -78.5,118.4 -8.4,13.2 -15,29.1 -29.8,36.2 -7.8,4.6 -17.4,0.8 -23,-5.3 -7,-8.8 -6.7,-20.7 -9,-31.1 -15.1,-79.2 -29,-158.6 -44.1,-237.8 -2.1,-10 -4.7,-21.8 2.5,-30.4 15.5,-18.6 41,-25.1 64.4,-25.4 z" inkscape:connector-curvature="0" style="fill:#000000;stroke:#000000;stroke-width:0.09375"/>
      <path id="path3028" d="m 542.3,164.3 c 9.1,0.1 18.9,0.5 26.7,5.7 10.6,5.6 13.7,18.2 16.2,28.9 5.6,25.7 8.9,51.8 13.1,77.8 7.5,50.4 19,100.1 30.2,149.7 2.8,13.1 8.2,26.9 4.1,40.2 -2.2,7.7 -9.5,13.8 -17.6,13.4 -9.4,1.7 -16.9,-5.1 -24.1,-9.9 C 553.5,445 516.7,419 479.6,393.4 447,371.9 415.5,348.7 382.9,327.2 c -6.8,-4.6 -14.9,-9.4 -17.4,-17.8 -3.6,-12.1 0,-25 4.6,-36.3 8.3,-19.2 23.3,-34.6 38.9,-48.1 23.3,-19.9 48.2,-39.2 77.4,-49.6 17.9,-6.6 36.8,-10.3 55.9,-11.1 z" inkscape:connector-curvature="0" style="fill:#000000;stroke:#000000;stroke-width:0.09375"/>
      <path id="path3030" d="m 853.5,233.5 c 13,-1.6 25.9,3.2 37.5,8.5 23.2,13 40.6,33.7 56.6,54.3 28.2,33.9 46.8,77.2 45.5,121.7 0.9,15.3 -9.9,30.8 -25.2,33.9 -32.3,8.6 -65.7,11.8 -98.6,17.4 -52.3,8.5 -104,20.1 -155.4,32.6 -10.5,1.6 -23.5,2.9 -31.5,-5.3 -6.9,-8 -6.6,-20.3 -0.5,-28.7 51.7,-74.4 102.9,-149.2 154.2,-223.8 3.9,-5.9 10.3,-9.9 17.4,-10.6 z" inkscape:connector-curvature="0" style="fill:#000000;stroke:#000000;stroke-width:0.09375"/>
      <path id="path3032" d="m 350.5,323.5 c 11.4,-2.1 21.7,4.1 30.9,10.1 32.8,21.5 63.6,45.8 95.7,68.2 36.2,24.9 73.5,48.1 110.8,71.3 7.5,4.8 13.7,11.9 17,20.2 0.5,5.7 0.1,12.2 -3.9,16.7 -5.1,5.7 -12.7,8.7 -20.1,9.7 -87.6,16 -175.2,32 -262.6,48.6 -10.2,2.3 -20.4,-3.2 -26.4,-11.2 -16.4,-19.7 -19.5,-46.3 -18.7,-70.9 1.8,-32 5,-64.5 17.8,-94.2 9.1,-22.1 22.4,-42.7 40.3,-58.6 5.5,-4.7 11.9,-9.1 19.2,-9.9 z" inkscape:connector-curvature="0" style="fill:#000000;stroke:#000000;stroke-width:0.09375"/>
      <path id="path3034" d="m 970.5,458.6 c 12.7,-3 24.7,6.7 30.5,17.4 15.5,22 14.7,50.3 13.8,75.9 -2.4,25.8 -5,52 -14.5,76.3 -9.3,25 -23.9,48.4 -44,66.1 -7.9,6.8 -18.9,11.9 -29.3,8.7 -14.2,-4.3 -25.7,-14.2 -38,-22.1 -34.4,-24.1 -67.6,-50 -102.9,-73 -25.3,-16.4 -50.6,-32.9 -76.5,-48.4 -8.5,-5.2 -17.4,-10.7 -22.6,-19.5 -5,-6.2 -5.2,-15.9 0,-22 6.5,-10.3 20,-10.5 30.7,-12.5 84.2,-15.7 168.6,-31 252.8,-46.9 z" inkscape:connector-curvature="0" style="fill:#000000;stroke:#000000;stroke-width:0.09375"/>
      <path id="path3036" d="m 577.5,524.6 c 9.9,-1.2 22.1,-1.8 29.3,6.6 7.6,9.3 4.4,23.2 -2.8,31.8 -14.5,19.1 -26.8,39.7 -40.9,59.1 -37.2,54.4 -75,108.4 -112.1,162.9 -10.5,12.4 -28.3,9.3 -41.9,4.8 -24.6,-8.5 -42.6,-28.5 -59.2,-47.7 -17.5,-21.1 -33.7,-43.9 -43.3,-69.8 -7.5,-19.8 -11.3,-41 -11.5,-62.2 0.8,-11.7 4.3,-24.6 15.2,-30.8 10.4,-5.4 22.1,-7.4 33.5,-9.6 28.9,-5.5 58,-9 86.9,-14 49.3,-8.3 98,-20.2 146.8,-31.1 z" inkscape:connector-curvature="0" style="fill:#000000;stroke:#000000;stroke-width:0.09375"/>
      <path id="path3038" d="m 674.3,546.3 c 4.6,-0.1 9.2,1.2 13.2,3.3 75.3,52.1 150.8,103.9 226.2,155.8 8.1,4.9 11.6,15.1 10.9,24.3 -1.2,12.9 -5.4,25.6 -12.3,36.6 -15.7,23.4 -38.1,40.9 -60.3,57.7 -28.2,20.9 -61.7,35.8 -97.1,37.7 -11,0.3 -22.9,2.1 -33,-3.6 C 712.3,853.9 707.3,843.7 705,834 697.9,805.5 694.7,776.1 689.8,747.2 682.2,697.7 671.4,648.7 660,600 c -2.8,-12.7 -8,-25.9 -3.9,-38.9 1.2,-8.8 9.9,-14.4 18.2,-14.8 z" inkscape:connector-curvature="0" style="fill:#000000;stroke:#000000;stroke-width:0.09375"/>
      <path id="path3040" d="m 628.7,552.3 c 10.2,0.1 18.6,8.4 20.7,18.2 16.4,90.1 33.3,180.2 49.8,270.4 2,10.1 -4.2,20.3 -12.4,25.9 -10.9,7.6 -23.2,13.7 -36.4,15.6 -27,4.6 -54.4,1.1 -81.3,-2.6 -40,-6.6 -79.6,-24.4 -106.6,-55.3 -9.5,-9.7 -11.3,-25.7 -4.4,-37.4 16.9,-29.3 38.8,-55.3 57.9,-83.2 31.8,-43.3 60.1,-89 88.3,-134.7 5.9,-8.1 13.8,-16 24.4,-16.9 z" inkscape:connector-curvature="0" style="fill:#000000;stroke:#000000;stroke-width:0.09375"/>
      <path id="path3042" d="m 1047.2,618.6 c 1.8,0.1 1.5,3 -0.1,3.1 -1.8,0 -1.5,-3 0.1,-3.1 z" inkscape:connector-curvature="0" style="fill:#000000;stroke:#000000;stroke-width:0.09375"/>
    </g>
  </g>
</svg>